M48
; DRILL file {KiCad (5.1.6-0-10_14)} date Sunday, September 06, 2020 at 07:08:18 PM
; FORMAT={3:3/ absolute / metric / suppress leading zeros}
; #@! TF.CreationDate,2020-09-06T19:08:18+02:00
; #@! TF.GenerationSoftware,Kicad,Pcbnew,(5.1.6-0-10_14)
FMAT,2
METRIC,TZ
T1C0.500
T2C0.750
T3C0.800
T4C0.950
T5C1.000
T6C3.200
%
G90
G05
T1
X143700Y-117000
X144000Y-118750
X144000Y-120500
X144000Y-122250
X147500Y-110000
X153000Y-102700
X153000Y-107300
X155400Y-102800
X156400Y-107300
X163000Y-102900
X163000Y-106200
X164000Y-122000
X166000Y-122000
X136350Y-121250
X137053Y-119553
X137053Y-122947
X138750Y-118850
X138750Y-123650
X140447Y-119553
X140447Y-122947
X141150Y-121250
X136350Y-88750
X137053Y-87053
X137053Y-90447
X138750Y-86350
X138750Y-91150
X140447Y-87053
X140447Y-90447
X141150Y-88750
X168850Y-88750
X169553Y-87053
X169553Y-90447
X171250Y-86350
X171250Y-91150
X172947Y-87053
X172947Y-90447
X173650Y-88750
X168850Y-121250
X169553Y-119553
X169553Y-122947
X171250Y-118850
X171250Y-123650
X172947Y-119553
X172947Y-122947
X173650Y-121250
T2
X145500Y-105500
X145500Y-110000
X147500Y-108000
X153600Y-112700
X156100Y-112700
X158600Y-112700
X158600Y-115200
X159700Y-97300
X165000Y-100000
X165500Y-103000
X165500Y-105000
X165500Y-107000
T3
X138250Y-97920
X138250Y-100460
X138250Y-103000
T4
X172000Y-100000
X172000Y-102500
X172000Y-105000
X172000Y-107500
X172000Y-110000
T5
X137000Y-107920
X137000Y-110460
X137000Y-113000
X139540Y-107920
X139540Y-110460
X139540Y-113000
X151180Y-92500
X153720Y-92500
X156260Y-92500
X158800Y-92500
T6
X171250Y-121250
X138750Y-121250
X138750Y-88750
X171250Y-88750
T0
M30
