G04 #@! TF.GenerationSoftware,KiCad,Pcbnew,(5.1.6-0-10_14)*
G04 #@! TF.CreationDate,2020-09-06T19:08:14+02:00*
G04 #@! TF.ProjectId,Tachometer pcb,54616368-6f6d-4657-9465-72207063622e,V2.0*
G04 #@! TF.SameCoordinates,Original*
G04 #@! TF.FileFunction,Paste,Top*
G04 #@! TF.FilePolarity,Positive*
%FSLAX46Y46*%
G04 Gerber Fmt 4.6, Leading zero omitted, Abs format (unit mm)*
G04 Created by KiCad (PCBNEW (5.1.6-0-10_14)) date 2020-09-06 19:08:14*
%MOMM*%
%LPD*%
G01*
G04 APERTURE LIST*
%ADD10R,3.050000X2.750000*%
%ADD11R,2.200000X1.200000*%
%ADD12R,0.900000X1.200000*%
%ADD13R,1.400000X1.200000*%
%ADD14R,1.700000X1.300000*%
%ADD15R,0.550000X1.600000*%
%ADD16R,1.600000X0.550000*%
G04 APERTURE END LIST*
G36*
G01*
X159913500Y-121990250D02*
X159913500Y-121077750D01*
G75*
G02*
X160157250Y-120834000I243750J0D01*
G01*
X160644750Y-120834000D01*
G75*
G02*
X160888500Y-121077750I0J-243750D01*
G01*
X160888500Y-121990250D01*
G75*
G02*
X160644750Y-122234000I-243750J0D01*
G01*
X160157250Y-122234000D01*
G75*
G02*
X159913500Y-121990250I0J243750D01*
G01*
G37*
G36*
G01*
X158038500Y-121990250D02*
X158038500Y-121077750D01*
G75*
G02*
X158282250Y-120834000I243750J0D01*
G01*
X158769750Y-120834000D01*
G75*
G02*
X159013500Y-121077750I0J-243750D01*
G01*
X159013500Y-121990250D01*
G75*
G02*
X158769750Y-122234000I-243750J0D01*
G01*
X158282250Y-122234000D01*
G75*
G02*
X158038500Y-121990250I0J243750D01*
G01*
G37*
G36*
G01*
X155425000Y-115027500D02*
X155425000Y-115372500D01*
G75*
G02*
X155277500Y-115520000I-147500J0D01*
G01*
X154982500Y-115520000D01*
G75*
G02*
X154835000Y-115372500I0J147500D01*
G01*
X154835000Y-115027500D01*
G75*
G02*
X154982500Y-114880000I147500J0D01*
G01*
X155277500Y-114880000D01*
G75*
G02*
X155425000Y-115027500I0J-147500D01*
G01*
G37*
G36*
G01*
X156395000Y-115027500D02*
X156395000Y-115372500D01*
G75*
G02*
X156247500Y-115520000I-147500J0D01*
G01*
X155952500Y-115520000D01*
G75*
G02*
X155805000Y-115372500I0J147500D01*
G01*
X155805000Y-115027500D01*
G75*
G02*
X155952500Y-114880000I147500J0D01*
G01*
X156247500Y-114880000D01*
G75*
G02*
X156395000Y-115027500I0J-147500D01*
G01*
G37*
G36*
G01*
X164827500Y-98675000D02*
X165172500Y-98675000D01*
G75*
G02*
X165320000Y-98822500I0J-147500D01*
G01*
X165320000Y-99117500D01*
G75*
G02*
X165172500Y-99265000I-147500J0D01*
G01*
X164827500Y-99265000D01*
G75*
G02*
X164680000Y-99117500I0J147500D01*
G01*
X164680000Y-98822500D01*
G75*
G02*
X164827500Y-98675000I147500J0D01*
G01*
G37*
G36*
G01*
X164827500Y-97705000D02*
X165172500Y-97705000D01*
G75*
G02*
X165320000Y-97852500I0J-147500D01*
G01*
X165320000Y-98147500D01*
G75*
G02*
X165172500Y-98295000I-147500J0D01*
G01*
X164827500Y-98295000D01*
G75*
G02*
X164680000Y-98147500I0J147500D01*
G01*
X164680000Y-97852500D01*
G75*
G02*
X164827500Y-97705000I147500J0D01*
G01*
G37*
D10*
X151476000Y-117729000D03*
X148126000Y-120779000D03*
X151476000Y-120779000D03*
X148126000Y-117729000D03*
D11*
X156101000Y-116974000D03*
X156101000Y-121534000D03*
G36*
G01*
X161605000Y-103972500D02*
X161605000Y-103627500D01*
G75*
G02*
X161752500Y-103480000I147500J0D01*
G01*
X162047500Y-103480000D01*
G75*
G02*
X162195000Y-103627500I0J-147500D01*
G01*
X162195000Y-103972500D01*
G75*
G02*
X162047500Y-104120000I-147500J0D01*
G01*
X161752500Y-104120000D01*
G75*
G02*
X161605000Y-103972500I0J147500D01*
G01*
G37*
G36*
G01*
X160635000Y-103972500D02*
X160635000Y-103627500D01*
G75*
G02*
X160782500Y-103480000I147500J0D01*
G01*
X161077500Y-103480000D01*
G75*
G02*
X161225000Y-103627500I0J-147500D01*
G01*
X161225000Y-103972500D01*
G75*
G02*
X161077500Y-104120000I-147500J0D01*
G01*
X160782500Y-104120000D01*
G75*
G02*
X160635000Y-103972500I0J147500D01*
G01*
G37*
G36*
G01*
X158627500Y-88955000D02*
X158972500Y-88955000D01*
G75*
G02*
X159120000Y-89102500I0J-147500D01*
G01*
X159120000Y-89397500D01*
G75*
G02*
X158972500Y-89545000I-147500J0D01*
G01*
X158627500Y-89545000D01*
G75*
G02*
X158480000Y-89397500I0J147500D01*
G01*
X158480000Y-89102500D01*
G75*
G02*
X158627500Y-88955000I147500J0D01*
G01*
G37*
G36*
G01*
X158627500Y-87985000D02*
X158972500Y-87985000D01*
G75*
G02*
X159120000Y-88132500I0J-147500D01*
G01*
X159120000Y-88427500D01*
G75*
G02*
X158972500Y-88575000I-147500J0D01*
G01*
X158627500Y-88575000D01*
G75*
G02*
X158480000Y-88427500I0J147500D01*
G01*
X158480000Y-88132500D01*
G75*
G02*
X158627500Y-87985000I147500J0D01*
G01*
G37*
G36*
G01*
X151027500Y-88990000D02*
X151372500Y-88990000D01*
G75*
G02*
X151520000Y-89137500I0J-147500D01*
G01*
X151520000Y-89432500D01*
G75*
G02*
X151372500Y-89580000I-147500J0D01*
G01*
X151027500Y-89580000D01*
G75*
G02*
X150880000Y-89432500I0J147500D01*
G01*
X150880000Y-89137500D01*
G75*
G02*
X151027500Y-88990000I147500J0D01*
G01*
G37*
G36*
G01*
X151027500Y-88020000D02*
X151372500Y-88020000D01*
G75*
G02*
X151520000Y-88167500I0J-147500D01*
G01*
X151520000Y-88462500D01*
G75*
G02*
X151372500Y-88610000I-147500J0D01*
G01*
X151027500Y-88610000D01*
G75*
G02*
X150880000Y-88462500I0J147500D01*
G01*
X150880000Y-88167500D01*
G75*
G02*
X151027500Y-88020000I147500J0D01*
G01*
G37*
G36*
G01*
X149027500Y-103675000D02*
X149372500Y-103675000D01*
G75*
G02*
X149520000Y-103822500I0J-147500D01*
G01*
X149520000Y-104117500D01*
G75*
G02*
X149372500Y-104265000I-147500J0D01*
G01*
X149027500Y-104265000D01*
G75*
G02*
X148880000Y-104117500I0J147500D01*
G01*
X148880000Y-103822500D01*
G75*
G02*
X149027500Y-103675000I147500J0D01*
G01*
G37*
G36*
G01*
X149027500Y-102705000D02*
X149372500Y-102705000D01*
G75*
G02*
X149520000Y-102852500I0J-147500D01*
G01*
X149520000Y-103147500D01*
G75*
G02*
X149372500Y-103295000I-147500J0D01*
G01*
X149027500Y-103295000D01*
G75*
G02*
X148880000Y-103147500I0J147500D01*
G01*
X148880000Y-102852500D01*
G75*
G02*
X149027500Y-102705000I147500J0D01*
G01*
G37*
G36*
G01*
X161125000Y-106027500D02*
X161125000Y-106372500D01*
G75*
G02*
X160977500Y-106520000I-147500J0D01*
G01*
X160682500Y-106520000D01*
G75*
G02*
X160535000Y-106372500I0J147500D01*
G01*
X160535000Y-106027500D01*
G75*
G02*
X160682500Y-105880000I147500J0D01*
G01*
X160977500Y-105880000D01*
G75*
G02*
X161125000Y-106027500I0J-147500D01*
G01*
G37*
G36*
G01*
X162095000Y-106027500D02*
X162095000Y-106372500D01*
G75*
G02*
X161947500Y-106520000I-147500J0D01*
G01*
X161652500Y-106520000D01*
G75*
G02*
X161505000Y-106372500I0J147500D01*
G01*
X161505000Y-106027500D01*
G75*
G02*
X161652500Y-105880000I147500J0D01*
G01*
X161947500Y-105880000D01*
G75*
G02*
X162095000Y-106027500I0J-147500D01*
G01*
G37*
D12*
X142200000Y-107900000D03*
X145500000Y-107900000D03*
G36*
G01*
X152756250Y-87937500D02*
X152243750Y-87937500D01*
G75*
G02*
X152025000Y-87718750I0J218750D01*
G01*
X152025000Y-87281250D01*
G75*
G02*
X152243750Y-87062500I218750J0D01*
G01*
X152756250Y-87062500D01*
G75*
G02*
X152975000Y-87281250I0J-218750D01*
G01*
X152975000Y-87718750D01*
G75*
G02*
X152756250Y-87937500I-218750J0D01*
G01*
G37*
G36*
G01*
X152756250Y-89512500D02*
X152243750Y-89512500D01*
G75*
G02*
X152025000Y-89293750I0J218750D01*
G01*
X152025000Y-88856250D01*
G75*
G02*
X152243750Y-88637500I218750J0D01*
G01*
X152756250Y-88637500D01*
G75*
G02*
X152975000Y-88856250I0J-218750D01*
G01*
X152975000Y-89293750D01*
G75*
G02*
X152756250Y-89512500I-218750J0D01*
G01*
G37*
D13*
X163500000Y-99450000D03*
X161300000Y-99450000D03*
X161300000Y-97750000D03*
X163500000Y-97750000D03*
G36*
G01*
X143872500Y-115295000D02*
X143527500Y-115295000D01*
G75*
G02*
X143380000Y-115147500I0J147500D01*
G01*
X143380000Y-114852500D01*
G75*
G02*
X143527500Y-114705000I147500J0D01*
G01*
X143872500Y-114705000D01*
G75*
G02*
X144020000Y-114852500I0J-147500D01*
G01*
X144020000Y-115147500D01*
G75*
G02*
X143872500Y-115295000I-147500J0D01*
G01*
G37*
G36*
G01*
X143872500Y-116265000D02*
X143527500Y-116265000D01*
G75*
G02*
X143380000Y-116117500I0J147500D01*
G01*
X143380000Y-115822500D01*
G75*
G02*
X143527500Y-115675000I147500J0D01*
G01*
X143872500Y-115675000D01*
G75*
G02*
X144020000Y-115822500I0J-147500D01*
G01*
X144020000Y-116117500D01*
G75*
G02*
X143872500Y-116265000I-147500J0D01*
G01*
G37*
G36*
G01*
X157756250Y-87937500D02*
X157243750Y-87937500D01*
G75*
G02*
X157025000Y-87718750I0J218750D01*
G01*
X157025000Y-87281250D01*
G75*
G02*
X157243750Y-87062500I218750J0D01*
G01*
X157756250Y-87062500D01*
G75*
G02*
X157975000Y-87281250I0J-218750D01*
G01*
X157975000Y-87718750D01*
G75*
G02*
X157756250Y-87937500I-218750J0D01*
G01*
G37*
G36*
G01*
X157756250Y-89512500D02*
X157243750Y-89512500D01*
G75*
G02*
X157025000Y-89293750I0J218750D01*
G01*
X157025000Y-88856250D01*
G75*
G02*
X157243750Y-88637500I218750J0D01*
G01*
X157756250Y-88637500D01*
G75*
G02*
X157975000Y-88856250I0J-218750D01*
G01*
X157975000Y-89293750D01*
G75*
G02*
X157756250Y-89512500I-218750J0D01*
G01*
G37*
D14*
X166000000Y-90500000D03*
X166000000Y-94000000D03*
G36*
G01*
X163172500Y-109325000D02*
X162827500Y-109325000D01*
G75*
G02*
X162680000Y-109177500I0J147500D01*
G01*
X162680000Y-108882500D01*
G75*
G02*
X162827500Y-108735000I147500J0D01*
G01*
X163172500Y-108735000D01*
G75*
G02*
X163320000Y-108882500I0J-147500D01*
G01*
X163320000Y-109177500D01*
G75*
G02*
X163172500Y-109325000I-147500J0D01*
G01*
G37*
G36*
G01*
X163172500Y-110295000D02*
X162827500Y-110295000D01*
G75*
G02*
X162680000Y-110147500I0J147500D01*
G01*
X162680000Y-109852500D01*
G75*
G02*
X162827500Y-109705000I147500J0D01*
G01*
X163172500Y-109705000D01*
G75*
G02*
X163320000Y-109852500I0J-147500D01*
G01*
X163320000Y-110147500D01*
G75*
G02*
X163172500Y-110295000I-147500J0D01*
G01*
G37*
G36*
G01*
X168487500Y-93543750D02*
X168487500Y-94456250D01*
G75*
G02*
X168243750Y-94700000I-243750J0D01*
G01*
X167756250Y-94700000D01*
G75*
G02*
X167512500Y-94456250I0J243750D01*
G01*
X167512500Y-93543750D01*
G75*
G02*
X167756250Y-93300000I243750J0D01*
G01*
X168243750Y-93300000D01*
G75*
G02*
X168487500Y-93543750I0J-243750D01*
G01*
G37*
G36*
G01*
X170362500Y-93543750D02*
X170362500Y-94456250D01*
G75*
G02*
X170118750Y-94700000I-243750J0D01*
G01*
X169631250Y-94700000D01*
G75*
G02*
X169387500Y-94456250I0J243750D01*
G01*
X169387500Y-93543750D01*
G75*
G02*
X169631250Y-93300000I243750J0D01*
G01*
X170118750Y-93300000D01*
G75*
G02*
X170362500Y-93543750I0J-243750D01*
G01*
G37*
D12*
X161830000Y-119000000D03*
X158530000Y-119000000D03*
G36*
G01*
X159922500Y-98575000D02*
X159577500Y-98575000D01*
G75*
G02*
X159430000Y-98427500I0J147500D01*
G01*
X159430000Y-98132500D01*
G75*
G02*
X159577500Y-97985000I147500J0D01*
G01*
X159922500Y-97985000D01*
G75*
G02*
X160070000Y-98132500I0J-147500D01*
G01*
X160070000Y-98427500D01*
G75*
G02*
X159922500Y-98575000I-147500J0D01*
G01*
G37*
G36*
G01*
X159922500Y-99545000D02*
X159577500Y-99545000D01*
G75*
G02*
X159430000Y-99397500I0J147500D01*
G01*
X159430000Y-99102500D01*
G75*
G02*
X159577500Y-98955000I147500J0D01*
G01*
X159922500Y-98955000D01*
G75*
G02*
X160070000Y-99102500I0J-147500D01*
G01*
X160070000Y-99397500D01*
G75*
G02*
X159922500Y-99545000I-147500J0D01*
G01*
G37*
D15*
X157800000Y-109250000D03*
X157000000Y-109250000D03*
X156200000Y-109250000D03*
X155400000Y-109250000D03*
X154600000Y-109250000D03*
X153800000Y-109250000D03*
X153000000Y-109250000D03*
X152200000Y-109250000D03*
D16*
X150750000Y-107800000D03*
X150750000Y-107000000D03*
X150750000Y-106200000D03*
X150750000Y-105400000D03*
X150750000Y-104600000D03*
X150750000Y-103800000D03*
X150750000Y-103000000D03*
X150750000Y-102200000D03*
D15*
X152200000Y-100750000D03*
X153000000Y-100750000D03*
X153800000Y-100750000D03*
X154600000Y-100750000D03*
X155400000Y-100750000D03*
X156200000Y-100750000D03*
X157000000Y-100750000D03*
X157800000Y-100750000D03*
D16*
X159250000Y-102200000D03*
X159250000Y-103000000D03*
X159250000Y-103800000D03*
X159250000Y-104600000D03*
X159250000Y-105400000D03*
X159250000Y-106200000D03*
X159250000Y-107000000D03*
X159250000Y-107800000D03*
M02*
