G04 #@! TF.GenerationSoftware,KiCad,Pcbnew,(5.1.6-0-10_14)*
G04 #@! TF.CreationDate,2020-09-06T19:08:14+02:00*
G04 #@! TF.ProjectId,Tachometer pcb,54616368-6f6d-4657-9465-72207063622e,V2.0*
G04 #@! TF.SameCoordinates,Original*
G04 #@! TF.FileFunction,Soldermask,Top*
G04 #@! TF.FilePolarity,Negative*
%FSLAX46Y46*%
G04 Gerber Fmt 4.6, Leading zero omitted, Abs format (unit mm)*
G04 Created by KiCad (PCBNEW (5.1.6-0-10_14)) date 2020-09-06 19:08:14*
%MOMM*%
%LPD*%
G01*
G04 APERTURE LIST*
%ADD10R,6.500000X5.900000*%
%ADD11R,2.300000X1.300000*%
%ADD12C,1.408000*%
%ADD13R,1.000000X1.300000*%
%ADD14O,1.800000X1.800000*%
%ADD15R,1.800000X1.800000*%
%ADD16R,1.500000X1.300000*%
%ADD17R,1.800000X1.400000*%
%ADD18O,2.050000X1.800000*%
%ADD19R,0.650000X1.700000*%
%ADD20R,1.700000X0.650000*%
%ADD21C,0.900000*%
%ADD22C,6.500000*%
G04 APERTURE END LIST*
G36*
G01*
X159863500Y-122015250D02*
X159863500Y-121052750D01*
G75*
G02*
X160132250Y-120784000I268750J0D01*
G01*
X160669750Y-120784000D01*
G75*
G02*
X160938500Y-121052750I0J-268750D01*
G01*
X160938500Y-122015250D01*
G75*
G02*
X160669750Y-122284000I-268750J0D01*
G01*
X160132250Y-122284000D01*
G75*
G02*
X159863500Y-122015250I0J268750D01*
G01*
G37*
G36*
G01*
X157988500Y-122015250D02*
X157988500Y-121052750D01*
G75*
G02*
X158257250Y-120784000I268750J0D01*
G01*
X158794750Y-120784000D01*
G75*
G02*
X159063500Y-121052750I0J-268750D01*
G01*
X159063500Y-122015250D01*
G75*
G02*
X158794750Y-122284000I-268750J0D01*
G01*
X158257250Y-122284000D01*
G75*
G02*
X157988500Y-122015250I0J268750D01*
G01*
G37*
G36*
G01*
X155475000Y-115002500D02*
X155475000Y-115397500D01*
G75*
G02*
X155302500Y-115570000I-172500J0D01*
G01*
X154957500Y-115570000D01*
G75*
G02*
X154785000Y-115397500I0J172500D01*
G01*
X154785000Y-115002500D01*
G75*
G02*
X154957500Y-114830000I172500J0D01*
G01*
X155302500Y-114830000D01*
G75*
G02*
X155475000Y-115002500I0J-172500D01*
G01*
G37*
G36*
G01*
X156445000Y-115002500D02*
X156445000Y-115397500D01*
G75*
G02*
X156272500Y-115570000I-172500J0D01*
G01*
X155927500Y-115570000D01*
G75*
G02*
X155755000Y-115397500I0J172500D01*
G01*
X155755000Y-115002500D01*
G75*
G02*
X155927500Y-114830000I172500J0D01*
G01*
X156272500Y-114830000D01*
G75*
G02*
X156445000Y-115002500I0J-172500D01*
G01*
G37*
G36*
G01*
X164802500Y-98625000D02*
X165197500Y-98625000D01*
G75*
G02*
X165370000Y-98797500I0J-172500D01*
G01*
X165370000Y-99142500D01*
G75*
G02*
X165197500Y-99315000I-172500J0D01*
G01*
X164802500Y-99315000D01*
G75*
G02*
X164630000Y-99142500I0J172500D01*
G01*
X164630000Y-98797500D01*
G75*
G02*
X164802500Y-98625000I172500J0D01*
G01*
G37*
G36*
G01*
X164802500Y-97655000D02*
X165197500Y-97655000D01*
G75*
G02*
X165370000Y-97827500I0J-172500D01*
G01*
X165370000Y-98172500D01*
G75*
G02*
X165197500Y-98345000I-172500J0D01*
G01*
X164802500Y-98345000D01*
G75*
G02*
X164630000Y-98172500I0J172500D01*
G01*
X164630000Y-97827500D01*
G75*
G02*
X164802500Y-97655000I172500J0D01*
G01*
G37*
D10*
X149801000Y-119254000D03*
D11*
X156101000Y-116974000D03*
X156101000Y-121534000D03*
G36*
G01*
X161555000Y-103997500D02*
X161555000Y-103602500D01*
G75*
G02*
X161727500Y-103430000I172500J0D01*
G01*
X162072500Y-103430000D01*
G75*
G02*
X162245000Y-103602500I0J-172500D01*
G01*
X162245000Y-103997500D01*
G75*
G02*
X162072500Y-104170000I-172500J0D01*
G01*
X161727500Y-104170000D01*
G75*
G02*
X161555000Y-103997500I0J172500D01*
G01*
G37*
G36*
G01*
X160585000Y-103997500D02*
X160585000Y-103602500D01*
G75*
G02*
X160757500Y-103430000I172500J0D01*
G01*
X161102500Y-103430000D01*
G75*
G02*
X161275000Y-103602500I0J-172500D01*
G01*
X161275000Y-103997500D01*
G75*
G02*
X161102500Y-104170000I-172500J0D01*
G01*
X160757500Y-104170000D01*
G75*
G02*
X160585000Y-103997500I0J172500D01*
G01*
G37*
D12*
X138250000Y-103000000D03*
X138250000Y-97920000D03*
X138250000Y-100460000D03*
G36*
G01*
X158602500Y-88905000D02*
X158997500Y-88905000D01*
G75*
G02*
X159170000Y-89077500I0J-172500D01*
G01*
X159170000Y-89422500D01*
G75*
G02*
X158997500Y-89595000I-172500J0D01*
G01*
X158602500Y-89595000D01*
G75*
G02*
X158430000Y-89422500I0J172500D01*
G01*
X158430000Y-89077500D01*
G75*
G02*
X158602500Y-88905000I172500J0D01*
G01*
G37*
G36*
G01*
X158602500Y-87935000D02*
X158997500Y-87935000D01*
G75*
G02*
X159170000Y-88107500I0J-172500D01*
G01*
X159170000Y-88452500D01*
G75*
G02*
X158997500Y-88625000I-172500J0D01*
G01*
X158602500Y-88625000D01*
G75*
G02*
X158430000Y-88452500I0J172500D01*
G01*
X158430000Y-88107500D01*
G75*
G02*
X158602500Y-87935000I172500J0D01*
G01*
G37*
G36*
G01*
X151002500Y-88940000D02*
X151397500Y-88940000D01*
G75*
G02*
X151570000Y-89112500I0J-172500D01*
G01*
X151570000Y-89457500D01*
G75*
G02*
X151397500Y-89630000I-172500J0D01*
G01*
X151002500Y-89630000D01*
G75*
G02*
X150830000Y-89457500I0J172500D01*
G01*
X150830000Y-89112500D01*
G75*
G02*
X151002500Y-88940000I172500J0D01*
G01*
G37*
G36*
G01*
X151002500Y-87970000D02*
X151397500Y-87970000D01*
G75*
G02*
X151570000Y-88142500I0J-172500D01*
G01*
X151570000Y-88487500D01*
G75*
G02*
X151397500Y-88660000I-172500J0D01*
G01*
X151002500Y-88660000D01*
G75*
G02*
X150830000Y-88487500I0J172500D01*
G01*
X150830000Y-88142500D01*
G75*
G02*
X151002500Y-87970000I172500J0D01*
G01*
G37*
G36*
G01*
X149002500Y-103625000D02*
X149397500Y-103625000D01*
G75*
G02*
X149570000Y-103797500I0J-172500D01*
G01*
X149570000Y-104142500D01*
G75*
G02*
X149397500Y-104315000I-172500J0D01*
G01*
X149002500Y-104315000D01*
G75*
G02*
X148830000Y-104142500I0J172500D01*
G01*
X148830000Y-103797500D01*
G75*
G02*
X149002500Y-103625000I172500J0D01*
G01*
G37*
G36*
G01*
X149002500Y-102655000D02*
X149397500Y-102655000D01*
G75*
G02*
X149570000Y-102827500I0J-172500D01*
G01*
X149570000Y-103172500D01*
G75*
G02*
X149397500Y-103345000I-172500J0D01*
G01*
X149002500Y-103345000D01*
G75*
G02*
X148830000Y-103172500I0J172500D01*
G01*
X148830000Y-102827500D01*
G75*
G02*
X149002500Y-102655000I172500J0D01*
G01*
G37*
G36*
G01*
X161175000Y-106002500D02*
X161175000Y-106397500D01*
G75*
G02*
X161002500Y-106570000I-172500J0D01*
G01*
X160657500Y-106570000D01*
G75*
G02*
X160485000Y-106397500I0J172500D01*
G01*
X160485000Y-106002500D01*
G75*
G02*
X160657500Y-105830000I172500J0D01*
G01*
X161002500Y-105830000D01*
G75*
G02*
X161175000Y-106002500I0J-172500D01*
G01*
G37*
G36*
G01*
X162145000Y-106002500D02*
X162145000Y-106397500D01*
G75*
G02*
X161972500Y-106570000I-172500J0D01*
G01*
X161627500Y-106570000D01*
G75*
G02*
X161455000Y-106397500I0J172500D01*
G01*
X161455000Y-106002500D01*
G75*
G02*
X161627500Y-105830000I172500J0D01*
G01*
X161972500Y-105830000D01*
G75*
G02*
X162145000Y-106002500I0J-172500D01*
G01*
G37*
D13*
X142200000Y-107900000D03*
X145500000Y-107900000D03*
G36*
G01*
X152781250Y-87987500D02*
X152218750Y-87987500D01*
G75*
G02*
X151975000Y-87743750I0J243750D01*
G01*
X151975000Y-87256250D01*
G75*
G02*
X152218750Y-87012500I243750J0D01*
G01*
X152781250Y-87012500D01*
G75*
G02*
X153025000Y-87256250I0J-243750D01*
G01*
X153025000Y-87743750D01*
G75*
G02*
X152781250Y-87987500I-243750J0D01*
G01*
G37*
G36*
G01*
X152781250Y-89562500D02*
X152218750Y-89562500D01*
G75*
G02*
X151975000Y-89318750I0J243750D01*
G01*
X151975000Y-88831250D01*
G75*
G02*
X152218750Y-88587500I243750J0D01*
G01*
X152781250Y-88587500D01*
G75*
G02*
X153025000Y-88831250I0J-243750D01*
G01*
X153025000Y-89318750D01*
G75*
G02*
X152781250Y-89562500I-243750J0D01*
G01*
G37*
D14*
X139540000Y-113000000D03*
X137000000Y-113000000D03*
X139540000Y-110460000D03*
X137000000Y-110460000D03*
X139540000Y-107920000D03*
D15*
X137000000Y-107920000D03*
D16*
X163500000Y-99450000D03*
X161300000Y-99450000D03*
X161300000Y-97750000D03*
X163500000Y-97750000D03*
G36*
G01*
X143897500Y-115345000D02*
X143502500Y-115345000D01*
G75*
G02*
X143330000Y-115172500I0J172500D01*
G01*
X143330000Y-114827500D01*
G75*
G02*
X143502500Y-114655000I172500J0D01*
G01*
X143897500Y-114655000D01*
G75*
G02*
X144070000Y-114827500I0J-172500D01*
G01*
X144070000Y-115172500D01*
G75*
G02*
X143897500Y-115345000I-172500J0D01*
G01*
G37*
G36*
G01*
X143897500Y-116315000D02*
X143502500Y-116315000D01*
G75*
G02*
X143330000Y-116142500I0J172500D01*
G01*
X143330000Y-115797500D01*
G75*
G02*
X143502500Y-115625000I172500J0D01*
G01*
X143897500Y-115625000D01*
G75*
G02*
X144070000Y-115797500I0J-172500D01*
G01*
X144070000Y-116142500D01*
G75*
G02*
X143897500Y-116315000I-172500J0D01*
G01*
G37*
G36*
G01*
X157781250Y-87987500D02*
X157218750Y-87987500D01*
G75*
G02*
X156975000Y-87743750I0J243750D01*
G01*
X156975000Y-87256250D01*
G75*
G02*
X157218750Y-87012500I243750J0D01*
G01*
X157781250Y-87012500D01*
G75*
G02*
X158025000Y-87256250I0J-243750D01*
G01*
X158025000Y-87743750D01*
G75*
G02*
X157781250Y-87987500I-243750J0D01*
G01*
G37*
G36*
G01*
X157781250Y-89562500D02*
X157218750Y-89562500D01*
G75*
G02*
X156975000Y-89318750I0J243750D01*
G01*
X156975000Y-88831250D01*
G75*
G02*
X157218750Y-88587500I243750J0D01*
G01*
X157781250Y-88587500D01*
G75*
G02*
X158025000Y-88831250I0J-243750D01*
G01*
X158025000Y-89318750D01*
G75*
G02*
X157781250Y-89562500I-243750J0D01*
G01*
G37*
D17*
X166000000Y-90500000D03*
X166000000Y-94000000D03*
D18*
X172000000Y-110000000D03*
X172000000Y-107500000D03*
X172000000Y-105000000D03*
X172000000Y-102500000D03*
G36*
G01*
X171239706Y-99100000D02*
X172760294Y-99100000D01*
G75*
G02*
X173025000Y-99364706I0J-264706D01*
G01*
X173025000Y-100635294D01*
G75*
G02*
X172760294Y-100900000I-264706J0D01*
G01*
X171239706Y-100900000D01*
G75*
G02*
X170975000Y-100635294I0J264706D01*
G01*
X170975000Y-99364706D01*
G75*
G02*
X171239706Y-99100000I264706J0D01*
G01*
G37*
G36*
G01*
X163197500Y-109375000D02*
X162802500Y-109375000D01*
G75*
G02*
X162630000Y-109202500I0J172500D01*
G01*
X162630000Y-108857500D01*
G75*
G02*
X162802500Y-108685000I172500J0D01*
G01*
X163197500Y-108685000D01*
G75*
G02*
X163370000Y-108857500I0J-172500D01*
G01*
X163370000Y-109202500D01*
G75*
G02*
X163197500Y-109375000I-172500J0D01*
G01*
G37*
G36*
G01*
X163197500Y-110345000D02*
X162802500Y-110345000D01*
G75*
G02*
X162630000Y-110172500I0J172500D01*
G01*
X162630000Y-109827500D01*
G75*
G02*
X162802500Y-109655000I172500J0D01*
G01*
X163197500Y-109655000D01*
G75*
G02*
X163370000Y-109827500I0J-172500D01*
G01*
X163370000Y-110172500D01*
G75*
G02*
X163197500Y-110345000I-172500J0D01*
G01*
G37*
G36*
G01*
X168537500Y-93518750D02*
X168537500Y-94481250D01*
G75*
G02*
X168268750Y-94750000I-268750J0D01*
G01*
X167731250Y-94750000D01*
G75*
G02*
X167462500Y-94481250I0J268750D01*
G01*
X167462500Y-93518750D01*
G75*
G02*
X167731250Y-93250000I268750J0D01*
G01*
X168268750Y-93250000D01*
G75*
G02*
X168537500Y-93518750I0J-268750D01*
G01*
G37*
G36*
G01*
X170412500Y-93518750D02*
X170412500Y-94481250D01*
G75*
G02*
X170143750Y-94750000I-268750J0D01*
G01*
X169606250Y-94750000D01*
G75*
G02*
X169337500Y-94481250I0J268750D01*
G01*
X169337500Y-93518750D01*
G75*
G02*
X169606250Y-93250000I268750J0D01*
G01*
X170143750Y-93250000D01*
G75*
G02*
X170412500Y-93518750I0J-268750D01*
G01*
G37*
D14*
X151180000Y-92500000D03*
X153720000Y-92500000D03*
X156260000Y-92500000D03*
D15*
X158800000Y-92500000D03*
D13*
X161830000Y-119000000D03*
X158530000Y-119000000D03*
G36*
G01*
X159947500Y-98625000D02*
X159552500Y-98625000D01*
G75*
G02*
X159380000Y-98452500I0J172500D01*
G01*
X159380000Y-98107500D01*
G75*
G02*
X159552500Y-97935000I172500J0D01*
G01*
X159947500Y-97935000D01*
G75*
G02*
X160120000Y-98107500I0J-172500D01*
G01*
X160120000Y-98452500D01*
G75*
G02*
X159947500Y-98625000I-172500J0D01*
G01*
G37*
G36*
G01*
X159947500Y-99595000D02*
X159552500Y-99595000D01*
G75*
G02*
X159380000Y-99422500I0J172500D01*
G01*
X159380000Y-99077500D01*
G75*
G02*
X159552500Y-98905000I172500J0D01*
G01*
X159947500Y-98905000D01*
G75*
G02*
X160120000Y-99077500I0J-172500D01*
G01*
X160120000Y-99422500D01*
G75*
G02*
X159947500Y-99595000I-172500J0D01*
G01*
G37*
D19*
X157800000Y-109250000D03*
X157000000Y-109250000D03*
X156200000Y-109250000D03*
X155400000Y-109250000D03*
X154600000Y-109250000D03*
X153800000Y-109250000D03*
X153000000Y-109250000D03*
X152200000Y-109250000D03*
D20*
X150750000Y-107800000D03*
X150750000Y-107000000D03*
X150750000Y-106200000D03*
X150750000Y-105400000D03*
X150750000Y-104600000D03*
X150750000Y-103800000D03*
X150750000Y-103000000D03*
X150750000Y-102200000D03*
D19*
X152200000Y-100750000D03*
X153000000Y-100750000D03*
X153800000Y-100750000D03*
X154600000Y-100750000D03*
X155400000Y-100750000D03*
X156200000Y-100750000D03*
X157000000Y-100750000D03*
X157800000Y-100750000D03*
D20*
X159250000Y-102200000D03*
X159250000Y-103000000D03*
X159250000Y-103800000D03*
X159250000Y-104600000D03*
X159250000Y-105400000D03*
X159250000Y-106200000D03*
X159250000Y-107000000D03*
X159250000Y-107800000D03*
D21*
X140447056Y-119552944D03*
X138750000Y-118850000D03*
X137052944Y-119552944D03*
X136350000Y-121250000D03*
X137052944Y-122947056D03*
X138750000Y-123650000D03*
X140447056Y-122947056D03*
X141150000Y-121250000D03*
D22*
X138750000Y-121250000D03*
X171250000Y-121250000D03*
D21*
X173650000Y-121250000D03*
X172947056Y-122947056D03*
X171250000Y-123650000D03*
X169552944Y-122947056D03*
X168850000Y-121250000D03*
X169552944Y-119552944D03*
X171250000Y-118850000D03*
X172947056Y-119552944D03*
X172947056Y-87052944D03*
X171250000Y-86350000D03*
X169552944Y-87052944D03*
X168850000Y-88750000D03*
X169552944Y-90447056D03*
X171250000Y-91150000D03*
X172947056Y-90447056D03*
X173650000Y-88750000D03*
D22*
X171250000Y-88750000D03*
D21*
X140447056Y-87052944D03*
X138750000Y-86350000D03*
X137052944Y-87052944D03*
X136350000Y-88750000D03*
X137052944Y-90447056D03*
X138750000Y-91150000D03*
X140447056Y-90447056D03*
X141150000Y-88750000D03*
D22*
X138750000Y-88750000D03*
M02*
