G04 #@! TF.GenerationSoftware,KiCad,Pcbnew,(5.1.6-0-10_14)*
G04 #@! TF.CreationDate,2020-09-06T19:08:14+02:00*
G04 #@! TF.ProjectId,Tachometer pcb,54616368-6f6d-4657-9465-72207063622e,V2.0*
G04 #@! TF.SameCoordinates,Original*
G04 #@! TF.FileFunction,Legend,Top*
G04 #@! TF.FilePolarity,Positive*
%FSLAX46Y46*%
G04 Gerber Fmt 4.6, Leading zero omitted, Abs format (unit mm)*
G04 Created by KiCad (PCBNEW (5.1.6-0-10_14)) date 2020-09-06 19:08:14*
%MOMM*%
%LPD*%
G01*
G04 APERTURE LIST*
%ADD10C,0.150000*%
%ADD11C,0.120000*%
%ADD12C,0.127000*%
G04 APERTURE END LIST*
D10*
X137414285Y-115871428D02*
X137414285Y-115271428D01*
X138042857Y-115814285D02*
X138014285Y-115842857D01*
X137928571Y-115871428D01*
X137871428Y-115871428D01*
X137785714Y-115842857D01*
X137728571Y-115785714D01*
X137700000Y-115728571D01*
X137671428Y-115614285D01*
X137671428Y-115528571D01*
X137700000Y-115414285D01*
X137728571Y-115357142D01*
X137785714Y-115300000D01*
X137871428Y-115271428D01*
X137928571Y-115271428D01*
X138014285Y-115300000D01*
X138042857Y-115328571D01*
X138271428Y-115842857D02*
X138357142Y-115871428D01*
X138500000Y-115871428D01*
X138557142Y-115842857D01*
X138585714Y-115814285D01*
X138614285Y-115757142D01*
X138614285Y-115700000D01*
X138585714Y-115642857D01*
X138557142Y-115614285D01*
X138500000Y-115585714D01*
X138385714Y-115557142D01*
X138328571Y-115528571D01*
X138300000Y-115500000D01*
X138271428Y-115442857D01*
X138271428Y-115385714D01*
X138300000Y-115328571D01*
X138328571Y-115300000D01*
X138385714Y-115271428D01*
X138528571Y-115271428D01*
X138614285Y-115300000D01*
X138871428Y-115871428D02*
X138871428Y-115271428D01*
X139100000Y-115271428D01*
X139157142Y-115300000D01*
X139185714Y-115328571D01*
X139214285Y-115385714D01*
X139214285Y-115471428D01*
X139185714Y-115528571D01*
X139157142Y-115557142D01*
X139100000Y-115585714D01*
X138871428Y-115585714D01*
X156700000Y-90771428D02*
X156700000Y-90171428D01*
X156928571Y-90171428D01*
X156985714Y-90200000D01*
X157014285Y-90228571D01*
X157042857Y-90285714D01*
X157042857Y-90371428D01*
X157014285Y-90428571D01*
X156985714Y-90457142D01*
X156928571Y-90485714D01*
X156700000Y-90485714D01*
X157242857Y-90171428D02*
X157385714Y-90771428D01*
X157500000Y-90342857D01*
X157614285Y-90771428D01*
X157757142Y-90171428D01*
X158328571Y-90771428D02*
X158128571Y-90485714D01*
X157985714Y-90771428D02*
X157985714Y-90171428D01*
X158214285Y-90171428D01*
X158271428Y-90200000D01*
X158300000Y-90228571D01*
X158328571Y-90285714D01*
X158328571Y-90371428D01*
X158300000Y-90428571D01*
X158271428Y-90457142D01*
X158214285Y-90485714D01*
X157985714Y-90485714D01*
X151728571Y-90742857D02*
X151814285Y-90771428D01*
X151957142Y-90771428D01*
X152014285Y-90742857D01*
X152042857Y-90714285D01*
X152071428Y-90657142D01*
X152071428Y-90600000D01*
X152042857Y-90542857D01*
X152014285Y-90514285D01*
X151957142Y-90485714D01*
X151842857Y-90457142D01*
X151785714Y-90428571D01*
X151757142Y-90400000D01*
X151728571Y-90342857D01*
X151728571Y-90285714D01*
X151757142Y-90228571D01*
X151785714Y-90200000D01*
X151842857Y-90171428D01*
X151985714Y-90171428D01*
X152071428Y-90200000D01*
X152671428Y-90714285D02*
X152642857Y-90742857D01*
X152557142Y-90771428D01*
X152500000Y-90771428D01*
X152414285Y-90742857D01*
X152357142Y-90685714D01*
X152328571Y-90628571D01*
X152300000Y-90514285D01*
X152300000Y-90428571D01*
X152328571Y-90314285D01*
X152357142Y-90257142D01*
X152414285Y-90200000D01*
X152500000Y-90171428D01*
X152557142Y-90171428D01*
X152642857Y-90200000D01*
X152671428Y-90228571D01*
X152928571Y-90771428D02*
X152928571Y-90171428D01*
X153271428Y-90771428D02*
X153014285Y-90428571D01*
X153271428Y-90171428D02*
X152928571Y-90514285D01*
X166702500Y-109771428D02*
X167045357Y-109771428D01*
X166873928Y-110371428D02*
X166873928Y-109771428D01*
X167588214Y-110371428D02*
X167388214Y-110085714D01*
X167245357Y-110371428D02*
X167245357Y-109771428D01*
X167473928Y-109771428D01*
X167531071Y-109800000D01*
X167559642Y-109828571D01*
X167588214Y-109885714D01*
X167588214Y-109971428D01*
X167559642Y-110028571D01*
X167531071Y-110057142D01*
X167473928Y-110085714D01*
X167245357Y-110085714D01*
X168159642Y-109800000D02*
X168102500Y-109771428D01*
X168016785Y-109771428D01*
X167931071Y-109800000D01*
X167873928Y-109857142D01*
X167845357Y-109914285D01*
X167816785Y-110028571D01*
X167816785Y-110114285D01*
X167845357Y-110228571D01*
X167873928Y-110285714D01*
X167931071Y-110342857D01*
X168016785Y-110371428D01*
X168073928Y-110371428D01*
X168159642Y-110342857D01*
X168188214Y-110314285D01*
X168188214Y-110114285D01*
X168073928Y-110114285D01*
X167645357Y-107171428D02*
X167359642Y-107171428D01*
X167331071Y-107457142D01*
X167359642Y-107428571D01*
X167416785Y-107400000D01*
X167559642Y-107400000D01*
X167616785Y-107428571D01*
X167645357Y-107457142D01*
X167673928Y-107514285D01*
X167673928Y-107657142D01*
X167645357Y-107714285D01*
X167616785Y-107742857D01*
X167559642Y-107771428D01*
X167416785Y-107771428D01*
X167359642Y-107742857D01*
X167331071Y-107714285D01*
X167845357Y-107171428D02*
X168045357Y-107771428D01*
X168245357Y-107171428D01*
X166931071Y-104700000D02*
X166873928Y-104671428D01*
X166788214Y-104671428D01*
X166702500Y-104700000D01*
X166645357Y-104757142D01*
X166616785Y-104814285D01*
X166588214Y-104928571D01*
X166588214Y-105014285D01*
X166616785Y-105128571D01*
X166645357Y-105185714D01*
X166702500Y-105242857D01*
X166788214Y-105271428D01*
X166845357Y-105271428D01*
X166931071Y-105242857D01*
X166959642Y-105214285D01*
X166959642Y-105014285D01*
X166845357Y-105014285D01*
X167216785Y-105271428D02*
X167216785Y-104671428D01*
X167559642Y-105271428D01*
X167559642Y-104671428D01*
X167845357Y-105271428D02*
X167845357Y-104671428D01*
X167988214Y-104671428D01*
X168073928Y-104700000D01*
X168131071Y-104757142D01*
X168159642Y-104814285D01*
X168188214Y-104928571D01*
X168188214Y-105014285D01*
X168159642Y-105128571D01*
X168131071Y-105185714D01*
X168073928Y-105242857D01*
X167988214Y-105271428D01*
X167845357Y-105271428D01*
X166931071Y-102771428D02*
X166931071Y-102171428D01*
X167531071Y-102200000D02*
X167473928Y-102171428D01*
X167388214Y-102171428D01*
X167302500Y-102200000D01*
X167245357Y-102257142D01*
X167216785Y-102314285D01*
X167188214Y-102428571D01*
X167188214Y-102514285D01*
X167216785Y-102628571D01*
X167245357Y-102685714D01*
X167302500Y-102742857D01*
X167388214Y-102771428D01*
X167445357Y-102771428D01*
X167531071Y-102742857D01*
X167559642Y-102714285D01*
X167559642Y-102514285D01*
X167445357Y-102514285D01*
X167816785Y-102771428D02*
X167816785Y-102171428D01*
X168159642Y-102771428D01*
X168159642Y-102171428D01*
X167102500Y-100371428D02*
X166759642Y-100371428D01*
X166931071Y-100371428D02*
X166931071Y-99771428D01*
X166873928Y-99857142D01*
X166816785Y-99914285D01*
X166759642Y-99942857D01*
X167331071Y-99828571D02*
X167359642Y-99800000D01*
X167416785Y-99771428D01*
X167559642Y-99771428D01*
X167616785Y-99800000D01*
X167645357Y-99828571D01*
X167673928Y-99885714D01*
X167673928Y-99942857D01*
X167645357Y-100028571D01*
X167302500Y-100371428D01*
X167673928Y-100371428D01*
X167845357Y-99771428D02*
X168045357Y-100371428D01*
X168245357Y-99771428D01*
D11*
X159204922Y-120824000D02*
X159722078Y-120824000D01*
X159204922Y-122244000D02*
X159722078Y-122244000D01*
X152871000Y-122704000D02*
X154371000Y-122704000D01*
X154371000Y-122704000D02*
X154371000Y-122434000D01*
X154371000Y-122434000D02*
X157201000Y-122434000D01*
X152871000Y-115804000D02*
X154371000Y-115804000D01*
X154371000Y-115804000D02*
X154371000Y-116074000D01*
X154371000Y-116074000D02*
X155471000Y-116074000D01*
D12*
X135750000Y-95610000D02*
X140750000Y-95610000D01*
X140750000Y-95610000D02*
X140750000Y-105310000D01*
X140750000Y-105310000D02*
X135750000Y-105310000D01*
X135750000Y-105310000D02*
X135750000Y-95610000D01*
D11*
X146100000Y-108900000D02*
X146100000Y-106900000D01*
X146100000Y-106900000D02*
X142200000Y-106900000D01*
X146100000Y-108900000D02*
X142200000Y-108900000D01*
X151765000Y-87487500D02*
X151765000Y-89772500D01*
X151765000Y-89772500D02*
X153235000Y-89772500D01*
X153235000Y-89772500D02*
X153235000Y-87487500D01*
X135670000Y-114330000D02*
X140870000Y-114330000D01*
X135670000Y-109190000D02*
X135670000Y-114330000D01*
X140870000Y-106590000D02*
X140870000Y-114330000D01*
X135670000Y-109190000D02*
X138270000Y-109190000D01*
X138270000Y-109190000D02*
X138270000Y-106590000D01*
X138270000Y-106590000D02*
X140870000Y-106590000D01*
X135670000Y-107920000D02*
X135670000Y-106590000D01*
X135670000Y-106590000D02*
X137000000Y-106590000D01*
X164400000Y-100250000D02*
X164400000Y-96950000D01*
X164400000Y-96950000D02*
X160400000Y-96950000D01*
X156765000Y-87487500D02*
X156765000Y-89772500D01*
X156765000Y-89772500D02*
X158235000Y-89772500D01*
X158235000Y-89772500D02*
X158235000Y-87487500D01*
X165000000Y-90500000D02*
X165000000Y-94800000D01*
X165000000Y-94800000D02*
X167000000Y-94800000D01*
X167000000Y-94800000D02*
X167000000Y-90500000D01*
X174460000Y-97440000D02*
X168490000Y-97440000D01*
X168490000Y-97440000D02*
X168490000Y-112560000D01*
X168490000Y-112560000D02*
X174460000Y-112560000D01*
X174460000Y-112560000D02*
X174460000Y-97440000D01*
X174450000Y-100750000D02*
X173700000Y-100750000D01*
X173700000Y-100750000D02*
X173700000Y-109250000D01*
X173700000Y-109250000D02*
X174450000Y-109250000D01*
X174450000Y-109250000D02*
X174450000Y-100750000D01*
X174450000Y-97450000D02*
X173700000Y-97450000D01*
X173700000Y-97450000D02*
X173700000Y-99250000D01*
X173700000Y-99250000D02*
X174450000Y-99250000D01*
X174450000Y-99250000D02*
X174450000Y-97450000D01*
X174450000Y-110750000D02*
X173700000Y-110750000D01*
X173700000Y-110750000D02*
X173700000Y-112550000D01*
X173700000Y-112550000D02*
X174450000Y-112550000D01*
X174450000Y-112550000D02*
X174450000Y-110750000D01*
X172200000Y-97450000D02*
X172200000Y-98200000D01*
X172200000Y-98200000D02*
X169250000Y-98200000D01*
X169250000Y-98200000D02*
X169250000Y-105000000D01*
X172200000Y-112550000D02*
X172200000Y-111800000D01*
X172200000Y-111800000D02*
X169250000Y-111800000D01*
X169250000Y-111800000D02*
X169250000Y-105000000D01*
X174750000Y-98400000D02*
X174750000Y-97150000D01*
X174750000Y-97150000D02*
X173500000Y-97150000D01*
X169196078Y-94710000D02*
X168678922Y-94710000D01*
X169196078Y-93290000D02*
X168678922Y-93290000D01*
X157930000Y-118000000D02*
X157930000Y-120000000D01*
X157930000Y-120000000D02*
X161830000Y-120000000D01*
X157930000Y-118000000D02*
X161830000Y-118000000D01*
D10*
X158625000Y-108625000D02*
X158625000Y-108400000D01*
X151375000Y-108625000D02*
X151375000Y-108300000D01*
X151375000Y-101375000D02*
X151375000Y-101700000D01*
X158625000Y-101375000D02*
X158625000Y-101700000D01*
X158625000Y-108625000D02*
X158300000Y-108625000D01*
X158625000Y-101375000D02*
X158300000Y-101375000D01*
X151375000Y-101375000D02*
X151700000Y-101375000D01*
X151375000Y-108625000D02*
X151700000Y-108625000D01*
X158625000Y-108400000D02*
X160050000Y-108400000D01*
X159296833Y-120241142D02*
X159249214Y-120288761D01*
X159106357Y-120336380D01*
X159011119Y-120336380D01*
X158868261Y-120288761D01*
X158773023Y-120193523D01*
X158725404Y-120098285D01*
X158677785Y-119907809D01*
X158677785Y-119764952D01*
X158725404Y-119574476D01*
X158773023Y-119479238D01*
X158868261Y-119384000D01*
X159011119Y-119336380D01*
X159106357Y-119336380D01*
X159249214Y-119384000D01*
X159296833Y-119431619D01*
X160249214Y-120336380D02*
X159677785Y-120336380D01*
X159963500Y-120336380D02*
X159963500Y-119336380D01*
X159868261Y-119479238D01*
X159773023Y-119574476D01*
X159677785Y-119622095D01*
M02*
